<svg xmlns="http://www.w3.org/2000/svg" xmlns:xlink="http://www.w3.org/1999/xlink" width="500" zoomAndPan="magnify" viewBox="0 0 375 374.999991" height="500" preserveAspectRatio="xMidYMid meet" version="1.0"><defs><g/></defs><path fill="#e1ddcc" d="M 186.914062 87.640625 C 207.675781 88.796875 229.363281 84.78125 247.628906 94.761719 C 266.449219 105.058594 277.761719 124.371094 288.359375 143.078125 C 299.808594 163.328125 317.652344 185.132812 311.332031 207.546875 C 304.945312 230.21875 276.597656 237.105469 257.859375 251.292969 C 243.378906 262.261719 230.480469 274.292969 213.789062 281.417969 C 195.265625 289.316406 175.234375 301.167969 156.164062 294.746094 C 137.097656 288.328125 129.335938 266.144531 118.304688 249.3125 C 108.683594 234.582031 98.386719 220.136719 95.886719 202.730469 C 93.382812 185.324219 100.410156 168.863281 104.277344 151.695312 C 109.210938 129.695312 103.96875 101.550781 121.75 87.773438 C 139.289062 74.167969 164.773438 86.410156 186.914062 87.640625 Z M 186.914062 87.640625 " fill-opacity="1" fill-rule="evenodd"/><g fill="#2a324b" fill-opacity="1"><g transform="translate(78.484372, 234.233627)"><g><path d="M 12.179688 -35.910156 C 5.460938 -35.910156 0 -27.859375 0 -17.988281 C 0 -8.050781 5.460938 0 12.179688 0 C 17.078125 0 21.417969 -2.589844 22.679688 -7.628906 C 22.75 -8.121094 22.398438 -8.398438 22.050781 -7.910156 C 20.371094 -5.949219 16.378906 -5.390625 14.070312 -6.160156 C 8.890625 -7.839844 6.511719 -14.140625 5.460938 -18.96875 C 4.761719 -21.980469 3.851562 -31.777344 8.46875 -31.847656 C 12.949219 -31.917969 17.78125 -24.148438 17.988281 -20.089844 C 18.058594 -19.179688 17.847656 -18.128906 17.148438 -17.847656 C 16.800781 -17.710938 16.9375 -17.359375 17.148438 -17.359375 C 24.007812 -17.148438 24.5 -23.449219 22.121094 -28.347656 C 19.878906 -32.898438 16.238281 -35.910156 12.179688 -35.910156 Z M 12.179688 -35.910156 "/></g></g></g><g fill="#2a324b" fill-opacity="1"><g transform="translate(103.543006, 234.233627)"><g><path d="M 12.179688 -35.910156 C 5.460938 -35.910156 0 -27.859375 0 -17.988281 C 0 -8.050781 5.460938 0 12.179688 0 C 18.898438 0 24.289062 -8.050781 24.289062 -17.988281 C 24.289062 -27.859375 18.898438 -35.910156 12.179688 -35.910156 Z M 15.191406 -4.128906 C 11.550781 -4.691406 7.140625 -11.339844 5.460938 -18.96875 C 3.78125 -26.597656 5.390625 -32.339844 9.101562 -31.777344 C 12.808594 -31.21875 17.148438 -24.570312 18.828125 -16.9375 C 20.578125 -9.308594 18.898438 -3.570312 15.191406 -4.128906 Z M 15.191406 -4.128906 "/></g></g></g><g fill="#2a324b" fill-opacity="1"><g transform="translate(129.511582, 234.233627)"><g><path d="M 0.910156 -49 C 0.210938 -49 0 -48.648438 0 -48.296875 C 0 -47.878906 0.28125 -47.808594 0.488281 -47.316406 C 3.570312 -40.738281 4.269531 -30.800781 4.269531 -24.5 C 4.269531 -18.199219 3.570312 -8.257812 0.488281 -1.679688 C 0.28125 -1.191406 0 -1.121094 0 -0.699219 C 0 -0.351562 0.210938 0 0.910156 0 C 3.148438 0 4.269531 -0.28125 6.511719 -0.28125 C 8.820312 -0.28125 9.871094 0 12.109375 0 C 12.808594 0 13.019531 -0.351562 13.019531 -0.699219 C 13.019531 -1.121094 12.738281 -1.191406 12.53125 -1.679688 C 9.449219 -8.257812 8.75 -18.199219 8.75 -24.5 C 8.75 -30.800781 9.449219 -40.738281 12.53125 -47.316406 C 12.738281 -47.808594 13.019531 -47.878906 13.019531 -48.296875 C 13.019531 -48.648438 12.808594 -49 12.109375 -49 C 9.871094 -49 8.820312 -48.71875 6.511719 -48.71875 C 4.269531 -48.71875 3.148438 -49 0.910156 -49 Z M 0.910156 -49 "/></g></g></g><g fill="#2a324b" fill-opacity="1"><g transform="translate(144.140781, 234.233627)"><g><path d="M 0.910156 -49 C 0.210938 -49 0 -48.648438 0 -48.296875 C 0 -47.878906 0.28125 -47.808594 0.488281 -47.316406 C 3.570312 -40.738281 4.269531 -30.800781 4.269531 -24.5 C 4.269531 -18.199219 3.570312 -8.257812 0.488281 -1.679688 C 0.28125 -1.191406 0 -1.121094 0 -0.699219 C 0 -0.351562 0.210938 0 0.910156 0 C 3.148438 0 4.269531 -0.28125 6.511719 -0.28125 C 8.820312 -0.28125 9.871094 0 12.109375 0 C 12.808594 0 13.019531 -0.351562 13.019531 -0.699219 C 13.019531 -1.121094 12.738281 -1.191406 12.53125 -1.679688 C 9.449219 -8.257812 8.75 -18.199219 8.75 -24.5 C 8.75 -30.800781 9.449219 -40.738281 12.53125 -47.316406 C 12.738281 -47.808594 13.019531 -47.878906 13.019531 -48.296875 C 13.019531 -48.648438 12.808594 -49 12.109375 -49 C 9.871094 -49 8.820312 -48.71875 6.511719 -48.71875 C 4.269531 -48.71875 3.148438 -49 0.910156 -49 Z M 0.910156 -49 "/></g></g></g><g fill="#2a324b" fill-opacity="1"><g transform="translate(158.76998, 234.233627)"><g><path d="M 14.769531 -16.871094 L 22.050781 -16.871094 C 23.589844 -16.871094 24.359375 -17.570312 24.289062 -19.109375 C 23.9375 -28.488281 18.621094 -35.910156 12.179688 -35.910156 C 5.460938 -35.910156 0 -27.859375 0 -17.988281 C 0 -8.050781 5.460938 0 12.179688 0 C 17.078125 0 21.417969 -2.589844 22.679688 -7.628906 C 22.75 -8.121094 22.398438 -8.398438 22.050781 -7.910156 C 18.96875 -4.269531 12.53125 -5.667969 9.941406 -9.101562 C 7.070312 -12.738281 9.519531 -16.871094 14.769531 -16.871094 Z M 8.539062 -16.800781 C 7.839844 -16.167969 7.210938 -15.328125 6.789062 -14.347656 C 6.230469 -15.890625 5.808594 -17.5 5.460938 -18.96875 C 3.78125 -26.597656 5.390625 -32.339844 9.101562 -31.777344 C 12.109375 -31.289062 15.609375 -26.808594 17.710938 -20.929688 C 18.199219 -19.667969 18.058594 -19.039062 16.449219 -19.039062 C 13.507812 -19.039062 10.917969 -18.96875 8.539062 -16.800781 Z M 8.539062 -16.800781 "/></g></g></g><g fill="#2a324b" fill-opacity="1"><g transform="translate(184.80856, 234.233627)"><g><path d="M 12.179688 -35.910156 C 5.460938 -35.910156 0 -27.859375 0 -17.988281 C 0 -8.050781 5.460938 0 12.179688 0 C 17.078125 0 21.417969 -2.589844 22.679688 -7.628906 C 22.75 -8.121094 22.398438 -8.398438 22.050781 -7.910156 C 20.371094 -5.949219 16.378906 -5.390625 14.070312 -6.160156 C 8.890625 -7.839844 6.511719 -14.140625 5.460938 -18.96875 C 4.761719 -21.980469 3.851562 -31.777344 8.46875 -31.847656 C 12.949219 -31.917969 17.78125 -24.148438 17.988281 -20.089844 C 18.058594 -19.179688 17.847656 -18.128906 17.148438 -17.847656 C 16.800781 -17.710938 16.9375 -17.359375 17.148438 -17.359375 C 24.007812 -17.148438 24.5 -23.449219 22.121094 -28.347656 C 19.878906 -32.898438 16.238281 -35.910156 12.179688 -35.910156 Z M 12.179688 -35.910156 "/></g></g></g><g fill="#2a324b" fill-opacity="1"><g transform="translate(209.867194, 234.233627)"><g><path d="M 16.167969 -6.511719 C 15.46875 -5.179688 13.929688 -4.480469 12.667969 -4.410156 C 9.871094 -4.269531 8.121094 -6.578125 7.628906 -8.46875 C 6.160156 -14 6.160156 -27.71875 10.570312 -30.449219 C 12.25 -31.5 14 -31.078125 14.628906 -30.027344 C 14.699219 -29.957031 14.769531 -29.75 14.699219 -29.609375 C 14.628906 -29.46875 14.769531 -29.398438 14.910156 -29.46875 C 16.238281 -29.957031 16.730469 -31.570312 16.730469 -32.757812 C 16.730469 -34.71875 15.46875 -35.839844 13.789062 -35.910156 C 12.390625 -35.980469 10.570312 -35.277344 8.820312 -32.339844 C 9.519531 -38.707031 11.058594 -44.449219 12.390625 -47.316406 C 12.597656 -47.808594 12.878906 -47.878906 12.878906 -48.296875 C 12.878906 -48.648438 12.667969 -49 11.96875 -49 C 9.730469 -49 8.679688 -48.71875 6.371094 -48.71875 C 4.128906 -48.71875 3.011719 -49 0.769531 -49 C 0.0703125 -49 -0.140625 -48.648438 -0.140625 -48.296875 C -0.140625 -47.878906 0.140625 -47.808594 0.351562 -47.316406 C 3.429688 -40.738281 3.78125 -33.527344 3.78125 -27.230469 C 3.78125 -20.300781 0 -12.667969 0 -7.980469 C 0 -2.730469 4.550781 0 8.46875 0 C 12.320312 0 16.730469 -2.449219 16.730469 -6.441406 C 16.730469 -6.859375 16.378906 -6.929688 16.167969 -6.511719 Z M 16.167969 -6.511719 "/></g></g></g><g fill="#2a324b" fill-opacity="1"><g transform="translate(228.20619, 234.233627)"><g><path d="M 6.511719 -49 C 4.058594 -49 2.101562 -47.039062 2.101562 -44.589844 C 2.101562 -42.136719 4.058594 -40.109375 6.511719 -40.109375 C 8.960938 -40.109375 10.917969 -42.136719 10.917969 -44.589844 C 10.917969 -47.039062 8.960938 -49 6.511719 -49 Z M 0.910156 -35.910156 C 0.210938 -35.910156 0 -35.558594 0 -35.207031 C 0 -34.789062 0.210938 -34.648438 0.488281 -34.230469 C 4.128906 -28.488281 4.269531 -21.140625 4.269531 -17.988281 C 4.269531 -14.769531 4.128906 -7.417969 0.488281 -1.679688 C 0.210938 -1.261719 0 -1.121094 0 -0.699219 C 0 -0.351562 0.210938 0 0.910156 0 C 3.148438 0 4.199219 -0.28125 6.511719 -0.28125 C 8.75 -0.28125 9.871094 0 12.109375 0 C 12.808594 0 13.019531 -0.351562 13.019531 -0.699219 C 13.019531 -1.121094 12.808594 -1.191406 12.53125 -1.679688 C 8.820312 -8.257812 8.75 -14.769531 8.75 -17.988281 C 8.75 -21.140625 8.820312 -27.648438 12.53125 -34.230469 C 12.808594 -34.71875 13.019531 -34.789062 13.019531 -35.207031 C 13.019531 -35.558594 12.808594 -35.910156 12.109375 -35.910156 C 9.871094 -35.910156 8.75 -35.628906 6.511719 -35.628906 C 4.199219 -35.628906 3.148438 -35.910156 0.910156 -35.910156 Z M 0.910156 -35.910156 "/></g></g></g><g fill="#2a324b" fill-opacity="1"><g transform="translate(242.765397, 234.233627)"><g><path d="M 13.371094 -32.828125 C 13.578125 -32.96875 13.929688 -32.96875 14.210938 -32.898438 C 14.980469 -32.6875 15.75 -31.988281 16.378906 -31.148438 C 20.019531 -26.320312 19.667969 -15.191406 17.21875 -8.609375 C 13.507812 1.398438 2.589844 -0.839844 6.300781 -12.597656 C 8.398438 -19.25 11.410156 -31.359375 9.167969 -34.859375 C 8.820312 -35.417969 8.46875 -35.910156 7.558594 -35.910156 C 6.371094 -35.910156 6.019531 -35.699219 4.410156 -35.699219 C 3.21875 -35.699219 1.960938 -35.910156 0.699219 -35.910156 C 0.140625 -35.910156 0 -35.628906 0 -35.417969 C 0 -35.070312 0.210938 -35 0.421875 -34.648438 C 6.019531 -24.289062 0 -16.238281 0 -9.167969 C 0 -3.359375 4.410156 0 9.589844 0 C 13.507812 0 17.847656 -1.960938 21 -6.300781 C 25.410156 -12.460938 27.367188 -24.007812 24.917969 -30.867188 C 23.730469 -34.296875 20.929688 -35.910156 18.199219 -35.910156 C 16.308594 -35.910156 14.140625 -35.140625 13.089844 -33.25 C 12.878906 -32.898438 13.019531 -32.550781 13.371094 -32.828125 Z M 13.371094 -32.828125 "/></g></g></g><g fill="#2a324b" fill-opacity="1"><g transform="translate(270.483878, 234.233627)"><g><path d="M 14.769531 -16.871094 L 22.050781 -16.871094 C 23.589844 -16.871094 24.359375 -17.570312 24.289062 -19.109375 C 23.9375 -28.488281 18.621094 -35.910156 12.179688 -35.910156 C 5.460938 -35.910156 0 -27.859375 0 -17.988281 C 0 -8.050781 5.460938 0 12.179688 0 C 17.078125 0 21.417969 -2.589844 22.679688 -7.628906 C 22.75 -8.121094 22.398438 -8.398438 22.050781 -7.910156 C 18.96875 -4.269531 12.53125 -5.667969 9.941406 -9.101562 C 7.070312 -12.738281 9.519531 -16.871094 14.769531 -16.871094 Z M 8.539062 -16.800781 C 7.839844 -16.167969 7.210938 -15.328125 6.789062 -14.347656 C 6.230469 -15.890625 5.808594 -17.5 5.460938 -18.96875 C 3.78125 -26.597656 5.390625 -32.339844 9.101562 -31.777344 C 12.109375 -31.289062 15.609375 -26.808594 17.710938 -20.929688 C 18.199219 -19.667969 18.058594 -19.039062 16.449219 -19.039062 C 13.507812 -19.039062 10.917969 -18.96875 8.539062 -16.800781 Z M 8.539062 -16.800781 "/></g></g></g><g fill="#2a324b" fill-opacity="1"><g transform="translate(131.169987, 179.740651)"><g><path d="M 12.179688 -35.910156 C 5.460938 -35.910156 0 -27.859375 0 -17.988281 C 0 -8.050781 5.460938 0 12.179688 0 C 17.078125 0 21.417969 -2.589844 22.679688 -7.628906 C 22.75 -8.121094 22.398438 -8.398438 22.050781 -7.910156 C 20.371094 -5.949219 16.378906 -5.390625 14.070312 -6.160156 C 8.890625 -7.839844 6.511719 -14.140625 5.460938 -18.96875 C 4.761719 -21.980469 3.851562 -31.777344 8.46875 -31.847656 C 12.949219 -31.917969 17.78125 -24.148438 17.988281 -20.089844 C 18.058594 -19.179688 17.847656 -18.128906 17.148438 -17.847656 C 16.800781 -17.710938 16.9375 -17.359375 17.148438 -17.359375 C 24.007812 -17.148438 24.5 -23.449219 22.121094 -28.347656 C 19.878906 -32.898438 16.238281 -35.910156 12.179688 -35.910156 Z M 12.179688 -35.910156 "/></g></g></g><g fill="#2a324b" fill-opacity="1"><g transform="translate(156.228621, 179.740651)"><g><path d="M 24.710938 -17.988281 C 24.710938 -21.140625 24.847656 -28.488281 28.488281 -34.230469 C 28.769531 -34.648438 28.980469 -34.789062 28.980469 -35.207031 C 28.980469 -35.558594 28.769531 -35.910156 28.070312 -35.910156 C 26.949219 -35.910156 25.898438 -35.628906 24.710938 -35.628906 C 23.730469 -35.628906 22.609375 -35.910156 21.628906 -35.910156 C 21.277344 -35.910156 21 -35.839844 20.859375 -35.488281 C 20.230469 -34.578125 19.878906 -33.390625 19.738281 -31.988281 C 17.640625 -34.4375 15.050781 -35.910156 12.179688 -35.910156 C 5.460938 -35.910156 0 -27.859375 0 -17.988281 C 0 -8.050781 5.460938 0 12.179688 0 C 15.050781 0 17.640625 -1.46875 19.738281 -3.917969 C 19.878906 -2.519531 20.230469 -1.328125 20.859375 -0.421875 C 21 -0.140625 21.277344 0 21.628906 0 C 22.609375 0 23.730469 -0.28125 24.710938 -0.28125 C 25.898438 -0.28125 26.949219 0 28.070312 0 C 28.769531 0 28.980469 -0.351562 28.980469 -0.699219 C 28.980469 -1.121094 28.769531 -1.261719 28.488281 -1.679688 C 24.847656 -7.417969 24.710938 -14.769531 24.710938 -17.988281 Z M 15.191406 -4.128906 C 11.550781 -4.691406 7.140625 -11.339844 5.460938 -18.96875 C 3.78125 -26.597656 5.390625 -32.339844 9.101562 -31.777344 C 12.808594 -31.21875 17.148438 -24.570312 18.828125 -16.9375 C 20.578125 -9.308594 18.898438 -3.570312 15.191406 -4.128906 Z M 15.191406 -4.128906 "/></g></g></g><g fill="#2a324b" fill-opacity="1"><g transform="translate(186.676952, 179.740651)"><g><path d="M 16.871094 -35.910156 C 13.929688 -35.910156 11.269531 -34.4375 9.167969 -31.917969 C 8.960938 -33.457031 8.679688 -34.789062 8.191406 -35.558594 C 7.980469 -35.839844 7.699219 -35.910156 7.351562 -35.910156 C 6.371094 -35.910156 5.25 -35.628906 4.269531 -35.628906 C 3.078125 -35.628906 2.03125 -35.910156 0.910156 -35.910156 C 0.210938 -35.910156 0 -35.558594 0 -35.207031 C 0 -34.789062 0.28125 -34.71875 0.488281 -34.230469 C 3.570312 -27.648438 4.269531 -17.78125 4.269531 -11.410156 C 4.269531 -5.109375 3.570312 4.828125 0.488281 11.410156 C 0.28125 11.898438 0 11.96875 0 12.390625 C 0 12.738281 0.210938 13.089844 0.910156 13.089844 C 3.148438 13.089844 4.269531 12.808594 6.511719 12.808594 C 8.820312 12.808594 9.871094 13.089844 12.109375 13.089844 C 12.808594 13.089844 13.019531 12.738281 13.019531 12.390625 C 13.019531 11.96875 12.738281 11.898438 12.53125 11.410156 C 10.5 7 9.519531 1.121094 9.03125 -4.128906 C 11.199219 -1.539062 13.859375 0 16.871094 0 C 23.519531 0 28.980469 -8.050781 28.980469 -17.988281 C 28.980469 -27.859375 23.519531 -35.910156 16.871094 -35.910156 Z M 19.878906 -4.128906 C 16.167969 -4.691406 11.828125 -11.339844 10.148438 -18.96875 C 8.46875 -26.597656 10.078125 -32.339844 13.789062 -31.777344 C 17.5 -31.21875 21.839844 -24.570312 23.519531 -16.9375 C 25.199219 -9.308594 23.589844 -3.570312 19.878906 -4.128906 Z M 19.878906 -4.128906 "/></g></g></g><g fill="#2a324b" fill-opacity="1"><g transform="translate(217.125284, 179.740651)"><g><path d="M 25.128906 -35.699219 C 25.199219 -35.488281 25.128906 -35.277344 24.988281 -35.070312 C 24.078125 -34.160156 22.679688 -33.738281 21 -33.597656 C 15.609375 -33.25 14.28125 -35.910156 8.46875 -35.910156 C 3.78125 -35.910156 0 -32.898438 0 -27.4375 C 0 -21.558594 5.320312 -18.480469 10.988281 -21.070312 C 13.230469 -22.121094 15.609375 -22.050781 17.148438 -20.019531 C 19.460938 -17.148438 20.019531 -12.109375 19.667969 -8.960938 C 18.621094 0.558594 7.070312 0.210938 7.699219 -9.589844 C 7.769531 -11.199219 8.257812 -12.738281 9.308594 -13.859375 C 10.21875 -14.769531 11.828125 -15.328125 13.019531 -14.417969 C 13.089844 -14.347656 13.300781 -14.210938 13.300781 -14.070312 C 13.230469 -13.71875 13.71875 -13.71875 13.71875 -14.210938 C 13.71875 -17.359375 11.058594 -18.828125 7.769531 -18.550781 C 2.660156 -18.128906 0 -14.417969 0 -10.429688 C 0 -5.460938 4.199219 0 14.070312 0 C 22.960938 0 27.648438 -5.808594 27.648438 -11.621094 C 27.648438 -15.75 25.828125 -18.621094 22.820312 -20.648438 C 17.917969 -23.9375 11.058594 -23.519531 7.070312 -27.089844 C 2.171875 -31.359375 5.949219 -37.027344 11.128906 -31.847656 C 13.578125 -29.328125 15.539062 -25.550781 19.738281 -24.988281 C 24.640625 -24.359375 27.648438 -27.089844 27.648438 -31.21875 C 27.648438 -32.617188 27.300781 -33.949219 26.527344 -35 C 26.25 -35.347656 25.828125 -35.910156 25.339844 -35.910156 C 25.128906 -35.910156 25.058594 -35.769531 25.128906 -35.699219 Z M 25.128906 -35.699219 "/></g></g></g><g fill="#2a324b" fill-opacity="1"><g transform="translate(246.31369, 179.740651)"><g><path d="M 28.070312 0 C 28.769531 0 28.980469 -0.351562 28.980469 -0.699219 C 28.980469 -1.121094 28.769531 -1.261719 28.488281 -1.679688 C 24.847656 -7.417969 24.710938 -14.769531 24.710938 -17.988281 C 24.710938 -21.140625 24.847656 -28.488281 28.488281 -34.230469 C 28.769531 -34.648438 28.980469 -34.789062 28.980469 -35.207031 C 28.980469 -35.558594 28.769531 -35.910156 28.070312 -35.910156 C 25.828125 -35.910156 24.777344 -35.628906 22.46875 -35.628906 C 20.230469 -35.628906 19.109375 -35.910156 16.871094 -35.910156 C 16.167969 -35.910156 15.960938 -35.558594 15.960938 -35.207031 C 15.960938 -34.789062 16.167969 -34.71875 16.449219 -34.230469 C 18.480469 -30.660156 19.460938 -27.578125 19.179688 -23.449219 C 18.828125 -16.660156 15.257812 -9.167969 8.679688 -7.351562 C 1.820312 -5.53125 0.699219 -11.480469 4.269531 -15.890625 C 7.769531 -20.230469 13.019531 -23.730469 12.808594 -29.609375 C 12.738281 -33.179688 10.21875 -35.910156 5.949219 -35.910156 C 3.917969 -35.910156 1.328125 -35.347656 0.0703125 -33.25 C -0.140625 -32.898438 0 -32.550781 0.421875 -32.828125 C 0.699219 -32.96875 1.121094 -32.757812 1.328125 -32.617188 C 3.640625 -31.21875 4.410156 -28.417969 4.199219 -25.828125 C 3.917969 -20.4375 0 -16.238281 0 -9.730469 C 0 -4.199219 3.148438 0 7.628906 0 C 15.257812 0 18.6875 -10.007812 20.230469 -16.308594 C 20.089844 -12.878906 19.597656 -7.28125 16.449219 -1.679688 C 16.167969 -1.191406 15.960938 -1.121094 15.960938 -0.699219 C 15.960938 -0.351562 16.167969 0 16.871094 0 C 19.109375 0 20.230469 -0.28125 22.46875 -0.28125 C 24.777344 -0.28125 25.828125 0 28.070312 0 Z M 28.070312 0 "/></g></g></g><g fill="#2a324b" fill-opacity="1"><g transform="translate(276.762021, 179.740651)"><g><path d="M 0.910156 -49 C 0.210938 -49 0 -48.648438 0 -48.296875 C 0 -47.878906 0.28125 -47.808594 0.488281 -47.316406 C 3.570312 -40.738281 4.269531 -30.800781 4.269531 -24.5 C 4.269531 -18.199219 3.570312 -8.257812 0.488281 -1.679688 C 0.28125 -1.191406 0 -1.121094 0 -0.699219 C 0 -0.351562 0.210938 0 0.910156 0 C 3.148438 0 4.269531 -0.28125 6.511719 -0.28125 C 8.820312 -0.28125 9.871094 0 12.109375 0 C 12.808594 0 13.019531 -0.351562 13.019531 -0.699219 C 13.019531 -1.121094 12.738281 -1.191406 12.53125 -1.679688 C 9.449219 -8.257812 8.75 -18.199219 8.75 -24.5 C 8.75 -30.800781 9.449219 -40.738281 12.53125 -47.316406 C 12.738281 -47.808594 13.019531 -47.878906 13.019531 -48.296875 C 13.019531 -48.648438 12.808594 -49 12.109375 -49 C 9.871094 -49 8.820312 -48.71875 6.511719 -48.71875 C 4.269531 -48.71875 3.148438 -49 0.910156 -49 Z M 0.910156 -49 "/></g></g></g><g fill="#2a324b" fill-opacity="1"><g transform="translate(291.39122, 179.740651)"><g><path d="M 14.769531 -16.871094 L 22.050781 -16.871094 C 23.589844 -16.871094 24.359375 -17.570312 24.289062 -19.109375 C 23.9375 -28.488281 18.621094 -35.910156 12.179688 -35.910156 C 5.460938 -35.910156 0 -27.859375 0 -17.988281 C 0 -8.050781 5.460938 0 12.179688 0 C 17.078125 0 21.417969 -2.589844 22.679688 -7.628906 C 22.75 -8.121094 22.398438 -8.398438 22.050781 -7.910156 C 18.96875 -4.269531 12.53125 -5.667969 9.941406 -9.101562 C 7.070312 -12.738281 9.519531 -16.871094 14.769531 -16.871094 Z M 8.539062 -16.800781 C 7.839844 -16.167969 7.210938 -15.328125 6.789062 -14.347656 C 6.230469 -15.890625 5.808594 -17.5 5.460938 -18.96875 C 3.78125 -26.597656 5.390625 -32.339844 9.101562 -31.777344 C 12.109375 -31.289062 15.609375 -26.808594 17.710938 -20.929688 C 18.199219 -19.667969 18.058594 -19.039062 16.449219 -19.039062 C 13.507812 -19.039062 10.917969 -18.96875 8.539062 -16.800781 Z M 8.539062 -16.800781 "/></g></g></g></svg>